Coordinates
version=1
nRows=30
nColumns=30
inDegrees=yes

Units are S.I. units (second, meters, Newtons, ...)
Angles are in degrees.

endheader
time	floatyaw	floatroll	floatpitch	floatx	floaty	floatz	pro_sup_l	deviation_l	flexion_l	cmc_flexion_l	cmc_abduction_l	mp_flexion_l	ip_flexion_l	2mcp_flexion_l	2mcp_abduction_l	2pm_flexion_l	2md_flexion_l	3mcp_flexion_l	3mcp_abduction_l	3pm_flexion_l	3md_flexion_l	4mcp_flexion_l	4mcp_abduction_l	4pm_flexion_l	4md_flexion_l	5mcp_flexion_l	5mcp_abduction_l	5pm_flexion_l	5md_flexion_l
-0.995000	-0.845308	-4.283240	94.249796	-0.007150	-0.268750	-0.001365	89.736479	-0.547746	-2.022755	26.634331	2.908440	-18.639840	-32.973016	18.463072	5.170201	33.391069	20.923688	8.285817	3.790389	35.733127	21.456770	-1.636702	-3.226766	52.724680	33.280709	-20.139699	-8.695473	59.909832	49.312586
-0.985000	-0.845308	-4.283240	94.249796	-0.007164	-0.268760	-0.001324	89.722368	-0.565464	-2.032178	26.654932	2.947224	-18.658933	-33.045857	18.496881	5.161766	33.379002	20.925704	8.337936	3.787534	35.689049	21.436108	-1.635136	-3.220561	52.710900	33.298871	-20.104979	-8.686007	59.851257	49.296409
-0.975000	-0.845308	-4.283240	94.249796	-0.007183	-0.268770	-0.001280	89.703819	-0.583090	-2.044255	26.679615	2.992705	-18.683823	-33.130147	18.541003	5.150143	33.352780	20.919915	8.401613	3.785004	35.626374	21.412286	-1.624261	-3.213719	52.677066	33.335287	-20.053310	-8.672711	59.770932	49.284658
-0.965000	-0.845308	-4.283240	94.249796	-0.007204	-0.268778	-0.001237	89.686308	-0.597823	-2.056893	26.705401	3.037886	-18.713343	-33.211983	18.588462	5.135944	33.320239	20.902352	8.463102	3.783547	35.564735	21.387074	-1.606596	-3.206984	52.634350	33.376506	-19.998970	-8.657217	59.689697	49.286748
-0.955000	-0.845308	-4.283240	94.249796	-0.007226	-0.268782	-0.001199	89.675085	-0.608247	-2.067232	26.726854	3.072295	-18.742113	-33.275275	18.632537	5.119878	33.286943	20.868515	8.508797	3.783385	35.519771	21.360383	-1.587369	-3.200486	52.593373	33.409333	-19.952749	-8.640042	59.619933	49.309474
-0.945000	-0.845308	-4.283240	94.249796	-0.007246	-0.268779	-0.001168	89.674610	-0.612958	-2.072591	26.736672	3.084186	-18.760469	-33.304370	18.667061	5.102907	33.256856	20.818177	8.529912	3.783870	35.498966	21.331859	-1.573080	-3.193874	52.562992	33.426676	-19.918287	-8.622089	59.564185	49.354862
-0.935000	-0.845308	-4.283240	94.249796	-0.007264	-0.268768	-0.001150	89.687622	-0.609919	-2.071635	26.729057	3.065877	-18.758129	-33.289979	18.686394	5.086605	33.235103	20.758124	8.525208	3.783638	35.502353	21.302501	-1.568700	-3.186929	52.550113	33.429411	-19.892532	-8.605444	59.520090	49.420372
-0.925000	-0.845308	-4.283240	94.249796	-0.007274	-0.268746	-0.001154	89.713944	-0.597379	-2.065168	26.703930	3.019332	-18.729697	-33.235837	18.686311	5.073224	33.229382	20.700556	8.500678	3.781240	35.526077	21.275268	-1.575134	-3.180034	52.559282	33.423866	-19.869958	-8.592769	59.487654	49.500219
-0.915000	-0.845308	-4.283240	94.249796	-0.007271	-0.268714	-0.001182	89.749646	-0.575568	-2.055783	26.668067	2.957741	-18.678104	-33.159746	18.665823	5.064956	33.247723	20.657977	8.466168	3.775869	35.565804	21.254507	-1.588962	-3.174061	52.591877	33.417061	-19.848106	-8.585870	59.473981	49.586208
-0.905000	-0.845308	-4.283240	94.249796	-0.007250	-0.268674	-0.001232	89.787590	-0.547496	-2.046328	26.631203	2.900771	-18.613269	-33.085254	18.628656	5.062538	33.293613	20.637664	8.430522	3.767686	35.618146	21.244577	-1.604815	-3.169832	52.645655	33.412532	-19.830854	-8.584645	59.492345	49.667607
-0.895000	-0.845308	-4.283240	94.249796	-0.007212	-0.268631	-0.001297	89.819759	-0.518024	-2.038297	26.599843	2.865690	-18.547073	-33.028465	18.583062	5.064248	33.362030	20.638684	8.398058	3.757690	35.680101	21.247949	-1.618377	-3.167620	52.714996	33.408697	-19.826649	-8.587180	59.555355	49.731126
-0.885000	-0.845308	-4.283240	94.249796	-0.007163	-0.268589	-0.001364	89.840375	-0.491853	-2.031497	26.573987	2.859729	-18.488507	-32.989916	18.539739	5.066342	33.439459	20.652682	8.368631	3.747361	35.747408	21.263375	-1.627614	-3.166991	52.791380	33.400342	-19.842226	-8.590830	59.665095	49.762608
-0.875000	-0.845308	-4.283240	94.249796	-0.007111	-0.268550	-0.001424	89.847885	-0.471959	-2.025154	26.549286	2.878203	-18.441928	-32.957618	18.508733	5.064990	33.508026	20.667748	8.341006	3.738306	35.812907	21.285202	-1.631672	-3.166980	52.863625	33.382256	-19.875953	-8.593495	59.805493	49.751153
-0.865000	-0.845308	-4.283240	94.249796	-0.007068	-0.268517	-0.001471	89.844545	-0.459358	-2.019353	26.522141	2.908948	-18.408291	-32.917936	18.496727	5.058552	33.551168	20.673516	8.316805	3.731922	35.865971	21.304887	-1.628860	-3.166456	52.918207	33.352915	-19.915731	-8.594335	59.942416	49.694505
-0.855000	-0.845308	-4.283240	94.249796	-0.007043	-0.268494	-0.001499	89.834048	-0.453980	-2.015622	26.493246	2.940030	-18.387359	-32.865423	18.505963	5.048695	33.557868	20.665415	8.302037	3.729077	35.893904	21.314624	-1.615467	-3.164581	52.940655	33.316010	-19.943315	-8.593648	60.033699	49.602624
-0.845000	-0.845308	-4.283240	94.249796	-0.007041	-0.268485	-0.001508	89.819094	-0.455687	-2.016354	26.467396	2.966116	-18.379276	-32.805485	18.535041	5.039700	33.524167	20.646357	8.305042	3.729953	35.885422	21.311276	-1.586374	-3.161194	52.918603	33.278967	-19.942667	-8.592246	60.045477	49.496296
-0.835000	-0.845308	-4.283240	94.249796	-0.007064	-0.268492	-0.001499	89.800739	-0.464656	-2.023496	26.450763	2.989784	-18.384981	-32.750400	18.580470	5.036426	33.452745	20.625026	8.332038	3.734169	35.835072	21.298031	-1.537357	-3.156897	52.845897	33.249438	-19.907569	-8.590910	59.966415	49.400181
-0.825000	-0.845308	-4.283240	94.249796	-0.007105	-0.268515	-0.001473	89.779775	-0.480978	-2.037239	26.447890	3.017213	-18.405453	-32.712950	18.637513	5.042126	33.351954	20.611286	8.382847	3.741148	35.746506	21.282368	-1.468125	-3.152801	52.725870	33.231878	-19.844419	-8.590313	59.811766	49.333544
-0.815000	-0.845308	-4.283240	94.249796	-0.007159	-0.268548	-0.001433	89.758534	-0.503945	-2.055331	26.459448	3.051562	-18.439976	-32.700897	18.699919	5.057157	33.234663	20.610944	8.449370	3.750473	35.632548	21.271489	-1.384450	-3.150177	52.571604	33.226033	-19.769095	-8.591196	59.614846	49.303813
-0.805000	-0.845308	-4.283240	94.249796	-0.007218	-0.268584	-0.001381	89.741001	-0.531684	-2.073388	26.480643	3.089041	-18.484222	-32.713013	18.759466	5.078959	33.116313	20.622888	8.517788	3.761954	35.511467	21.268275	-1.298076	-3.150176	52.402519	33.227940	-19.700288	-8.594271	59.411308	49.306165
-0.795000	-0.845308	-4.283240	94.249796	-0.007274	-0.268616	-0.001321	89.730535	-0.561409	-2.086066	26.500457	3.120762	-18.529476	-32.736876	18.806423	5.103024	33.011977	20.640618	8.573364	3.775233	35.401072	21.270520	-1.224281	-3.153630	52.239116	33.232645	-19.653344	-8.599519	59.225940	49.328274
-0.785000	-0.845308	-4.283240	94.249796	-0.007325	-0.268636	-0.001261	89.726728	-0.590007	-2.088634	26.502959	3.139155	-18.564229	-32.750103	18.831285	5.124246	32.933376	20.657338	8.605407	3.789152	35.313562	21.273730	-1.177984	-3.160890	52.098853	33.237159	-19.637078	-8.605239	59.069242	49.356702
-0.775000	-0.845308	-4.283240	94.249796	-0.007366	-0.268644	-0.001207	89.724095	-0.614521	-2.078366	26.471913	3.144306	-18.578101	-32.726926	18.827422	5.138243	32.886951	20.671087	8.610243	3.801468	35.253483	21.275190	-1.169514	-3.171843	51.994500	33.242091	-19.653228	-8.607624	58.943563	49.381672
-0.765000	-0.845308	-4.283240	94.249796	-0.007395	-0.268638	-0.001172	89.714370	-0.632448	-2.055353	26.397923	3.145415	-18.566430	-32.649108	18.793703	5.142544	32.873431	20.686053	8.591345	3.809451	35.219217	21.276212	-1.200929	-3.186095	51.933917	33.250939	-19.696941	-8.601477	58.852179	49.398806
-0.755000	-0.845308	-4.283240	94.249796	-0.007407	-0.268618	-0.001164	89.691873	-0.641982	-2.022523	26.284841	3.155742	-18.532849	-32.515955	18.735859	5.137575	32.888691	20.708853	8.556998	3.811329	35.206775	21.281024	-1.263911	-3.203067	51.919762	33.267190	-19.757494	-8.582160	58.804350	49.407968
-0.745000	-0.845308	-4.283240	94.249796	-0.007401	-0.268582	-0.001187	89.658976	-0.642264	-1.984870	26.151363	3.183874	-18.487999	-32.346759	18.665573	5.127081	32.925574	20.742488	8.516720	3.807693	35.213729	21.293523	-1.340680	-3.221827	51.949061	33.290858	-19.820112	-8.548370	58.814006	49.410302
-0.735000	-0.845308	-4.283240	94.249796	-0.007375	-0.268525	-0.001237	89.627666	-0.633638	-1.948103	26.025576	3.227013	-18.444625	-32.172593	18.597459	5.117319	32.975914	20.782640	8.477943	3.801794	35.240974	21.314760	-1.409039	-3.240778	52.013737	33.316841	-19.870315	-8.504729	58.894168	49.405372
-0.725000	-0.845308	-4.283240	94.249796	-0.007331	-0.268447	-0.001304	89.614827	-0.617932	-1.917112	25.933939	3.271030	-18.411583	-32.021165	18.545461	5.114872	33.031498	20.819129	8.444572	3.798375	35.290749	21.343008	-1.450693	-3.257589	52.102346	33.336494	-19.900231	-8.462582	59.049509	49.390655
-0.715000	-0.845308	-4.283240	94.249796	-0.007276	-0.268352	-0.001373	89.632934	-0.598672	-1.894702	25.889683	3.297665	-18.390067	-31.903651	18.520530	5.123764	33.083133	20.841193	8.418436	3.801671	35.361232	21.375457	-1.459227	-3.269538	52.201819	33.341696	-19.913030	-8.437435	59.268166	49.364479
-0.705000	-0.845308	-4.283240	94.249796	-0.007217	-0.268251	-0.001425	89.681337	-0.580777	-1.880949	25.886476	3.294730	-18.374138	-31.811656	18.530327	5.143325	33.118657	20.842616	8.402930	3.813679	35.440808	21.409148	-1.443205	-3.274325	52.298198	33.329158	-19.920562	-8.442937	59.515065	49.330346
